<mxfile host="app.diagrams.net" modified="2024-05-22T07:18:34.402Z" agent="Mozilla/5.0 (Windows NT 10.0; Win64; x64) AppleWebKit/537.36 (KHTML, like Gecko) Chrome/124.0.0.0 Safari/537.36" etag="schvfAvsdel74vBRWaFj" version="24.4.4" type="github">
  <diagram id="C5RBs43oDa-KdzZeNtuy" name="Page-1">
    <mxGraphModel dx="1434" dy="746" grid="1" gridSize="10" guides="1" tooltips="1" connect="1" arrows="1" fold="1" page="1" pageScale="1" pageWidth="827" pageHeight="1169" math="0" shadow="0">
      <root>
        <mxCell id="WIyWlLk6GJQsqaUBKTNV-0" />
        <mxCell id="WIyWlLk6GJQsqaUBKTNV-1" parent="WIyWlLk6GJQsqaUBKTNV-0" />
        <mxCell id="WIyWlLk6GJQsqaUBKTNV-3" value="웹브라우저 오픈&amp;nbsp;&lt;br&gt;다운로드 페이지 이동" style="rounded=1;whiteSpace=wrap;html=1;fontSize=12;glass=0;strokeWidth=1;shadow=0;" parent="WIyWlLk6GJQsqaUBKTNV-1" vertex="1">
          <mxGeometry x="160" y="80" width="210" height="40" as="geometry" />
        </mxCell>
        <mxCell id="j2uJnXPg584m3QFYkWsp-2" value="다운로드 받을 서비스명,&lt;br&gt;기존 다운로드 날짜 비교" style="rhombus;whiteSpace=wrap;html=1;" vertex="1" parent="WIyWlLk6GJQsqaUBKTNV-1">
          <mxGeometry x="160" y="160" width="210" height="80" as="geometry" />
        </mxCell>
        <mxCell id="j2uJnXPg584m3QFYkWsp-4" value="" style="endArrow=classic;html=1;rounded=0;exitX=0.5;exitY=1;exitDx=0;exitDy=0;entryX=0.5;entryY=0;entryDx=0;entryDy=0;" edge="1" parent="WIyWlLk6GJQsqaUBKTNV-1" source="WIyWlLk6GJQsqaUBKTNV-3" target="j2uJnXPg584m3QFYkWsp-2">
          <mxGeometry width="50" height="50" relative="1" as="geometry">
            <mxPoint x="390" y="420" as="sourcePoint" />
            <mxPoint x="440" y="370" as="targetPoint" />
          </mxGeometry>
        </mxCell>
        <mxCell id="j2uJnXPg584m3QFYkWsp-5" value="" style="endArrow=classic;html=1;rounded=0;exitX=0.5;exitY=1;exitDx=0;exitDy=0;entryX=0.5;entryY=0;entryDx=0;entryDy=0;" edge="1" parent="WIyWlLk6GJQsqaUBKTNV-1" source="j2uJnXPg584m3QFYkWsp-2">
          <mxGeometry width="50" height="50" relative="1" as="geometry">
            <mxPoint x="390" y="420" as="sourcePoint" />
            <mxPoint x="265" y="290" as="targetPoint" />
          </mxGeometry>
        </mxCell>
        <mxCell id="j2uJnXPg584m3QFYkWsp-7" value="페이지 안에 없으면 다음 페이지" style="rounded=1;whiteSpace=wrap;html=1;" vertex="1" parent="WIyWlLk6GJQsqaUBKTNV-1">
          <mxGeometry x="160" y="290" width="210" height="60" as="geometry" />
        </mxCell>
        <mxCell id="j2uJnXPg584m3QFYkWsp-8" value="!=" style="text;html=1;align=center;verticalAlign=middle;whiteSpace=wrap;rounded=0;" vertex="1" parent="WIyWlLk6GJQsqaUBKTNV-1">
          <mxGeometry x="250" y="250" width="60" height="30" as="geometry" />
        </mxCell>
        <mxCell id="j2uJnXPg584m3QFYkWsp-9" value="" style="endArrow=classic;html=1;rounded=0;exitX=0.5;exitY=1;exitDx=0;exitDy=0;" edge="1" parent="WIyWlLk6GJQsqaUBKTNV-1" source="j2uJnXPg584m3QFYkWsp-7">
          <mxGeometry width="50" height="50" relative="1" as="geometry">
            <mxPoint x="390" y="420" as="sourcePoint" />
            <mxPoint x="265" y="140" as="targetPoint" />
            <Array as="points">
              <mxPoint x="265" y="400" />
              <mxPoint x="100" y="400" />
              <mxPoint x="100" y="140" />
            </Array>
          </mxGeometry>
        </mxCell>
        <mxCell id="j2uJnXPg584m3QFYkWsp-10" value="" style="endArrow=classic;html=1;rounded=0;exitX=1;exitY=0.5;exitDx=0;exitDy=0;entryX=1;entryY=0.5;entryDx=0;entryDy=0;" edge="1" parent="WIyWlLk6GJQsqaUBKTNV-1" source="j2uJnXPg584m3QFYkWsp-2" target="j2uJnXPg584m3QFYkWsp-11">
          <mxGeometry width="50" height="50" relative="1" as="geometry">
            <mxPoint x="390" y="340" as="sourcePoint" />
            <mxPoint x="440" y="290" as="targetPoint" />
            <Array as="points">
              <mxPoint x="440" y="200" />
              <mxPoint x="440" y="500" />
            </Array>
          </mxGeometry>
        </mxCell>
        <mxCell id="j2uJnXPg584m3QFYkWsp-11" value="파일 다운로드" style="rounded=1;whiteSpace=wrap;html=1;" vertex="1" parent="WIyWlLk6GJQsqaUBKTNV-1">
          <mxGeometry x="205" y="470" width="120" height="60" as="geometry" />
        </mxCell>
        <mxCell id="j2uJnXPg584m3QFYkWsp-12" value="==" style="text;html=1;align=center;verticalAlign=middle;resizable=0;points=[];autosize=1;strokeColor=none;fillColor=none;" vertex="1" parent="WIyWlLk6GJQsqaUBKTNV-1">
          <mxGeometry x="360" y="168" width="40" height="30" as="geometry" />
        </mxCell>
        <mxCell id="j2uJnXPg584m3QFYkWsp-32" style="edgeStyle=orthogonalEdgeStyle;rounded=0;orthogonalLoop=1;jettySize=auto;html=1;exitX=0.5;exitY=1;exitDx=0;exitDy=0;entryX=0.5;entryY=0;entryDx=0;entryDy=0;" edge="1" parent="WIyWlLk6GJQsqaUBKTNV-1" source="j2uJnXPg584m3QFYkWsp-14">
          <mxGeometry relative="1" as="geometry">
            <mxPoint x="235" y="830" as="targetPoint" />
          </mxGeometry>
        </mxCell>
        <mxCell id="j2uJnXPg584m3QFYkWsp-14" value="다운로드 파일 폴더에 &lt;br&gt;있는지 확인" style="rhombus;whiteSpace=wrap;html=1;" vertex="1" parent="WIyWlLk6GJQsqaUBKTNV-1">
          <mxGeometry x="150" y="720" width="170" height="80" as="geometry" />
        </mxCell>
        <mxCell id="j2uJnXPg584m3QFYkWsp-15" value="종료" style="rounded=1;whiteSpace=wrap;html=1;" vertex="1" parent="WIyWlLk6GJQsqaUBKTNV-1">
          <mxGeometry x="414" y="730" width="120" height="60" as="geometry" />
        </mxCell>
        <mxCell id="j2uJnXPg584m3QFYkWsp-16" value="" style="endArrow=classic;html=1;rounded=0;exitX=1;exitY=0.5;exitDx=0;exitDy=0;entryX=0;entryY=0.5;entryDx=0;entryDy=0;" edge="1" parent="WIyWlLk6GJQsqaUBKTNV-1" source="j2uJnXPg584m3QFYkWsp-14" target="j2uJnXPg584m3QFYkWsp-15">
          <mxGeometry width="50" height="50" relative="1" as="geometry">
            <mxPoint x="390" y="790" as="sourcePoint" />
            <mxPoint x="440" y="740" as="targetPoint" />
          </mxGeometry>
        </mxCell>
        <mxCell id="j2uJnXPg584m3QFYkWsp-17" value="No" style="text;html=1;align=center;verticalAlign=middle;resizable=0;points=[];autosize=1;strokeColor=none;fillColor=none;" vertex="1" parent="WIyWlLk6GJQsqaUBKTNV-1">
          <mxGeometry x="330" y="738" width="40" height="30" as="geometry" />
        </mxCell>
        <mxCell id="j2uJnXPg584m3QFYkWsp-25" style="edgeStyle=orthogonalEdgeStyle;rounded=0;orthogonalLoop=1;jettySize=auto;html=1;exitX=0.5;exitY=1;exitDx=0;exitDy=0;" edge="1" parent="WIyWlLk6GJQsqaUBKTNV-1" source="j2uJnXPg584m3QFYkWsp-18" target="j2uJnXPg584m3QFYkWsp-20">
          <mxGeometry relative="1" as="geometry" />
        </mxCell>
        <mxCell id="j2uJnXPg584m3QFYkWsp-18" value="압축해제" style="rounded=1;whiteSpace=wrap;html=1;" vertex="1" parent="WIyWlLk6GJQsqaUBKTNV-1">
          <mxGeometry x="150" y="830" width="170" height="60" as="geometry" />
        </mxCell>
        <mxCell id="j2uJnXPg584m3QFYkWsp-38" style="edgeStyle=orthogonalEdgeStyle;rounded=0;orthogonalLoop=1;jettySize=auto;html=1;exitX=0.5;exitY=1;exitDx=0;exitDy=0;entryX=0.5;entryY=0;entryDx=0;entryDy=0;" edge="1" parent="WIyWlLk6GJQsqaUBKTNV-1" source="j2uJnXPg584m3QFYkWsp-20" target="j2uJnXPg584m3QFYkWsp-37">
          <mxGeometry relative="1" as="geometry" />
        </mxCell>
        <mxCell id="j2uJnXPg584m3QFYkWsp-20" value="파일 100만 줄씩 &lt;br&gt;자르기" style="rounded=1;whiteSpace=wrap;html=1;" vertex="1" parent="WIyWlLk6GJQsqaUBKTNV-1">
          <mxGeometry x="150" y="930" width="170" height="60" as="geometry" />
        </mxCell>
        <mxCell id="j2uJnXPg584m3QFYkWsp-27" style="edgeStyle=orthogonalEdgeStyle;rounded=0;orthogonalLoop=1;jettySize=auto;html=1;exitX=0.5;exitY=1;exitDx=0;exitDy=0;" edge="1" parent="WIyWlLk6GJQsqaUBKTNV-1" source="j2uJnXPg584m3QFYkWsp-21" target="j2uJnXPg584m3QFYkWsp-22">
          <mxGeometry relative="1" as="geometry" />
        </mxCell>
        <mxCell id="j2uJnXPg584m3QFYkWsp-21" value="파일 read,&amp;nbsp; dataframe 변환 후 null, pnu, 등 전처리" style="rounded=1;whiteSpace=wrap;html=1;" vertex="1" parent="WIyWlLk6GJQsqaUBKTNV-1">
          <mxGeometry x="150" y="1110" width="170" height="60" as="geometry" />
        </mxCell>
        <mxCell id="j2uJnXPg584m3QFYkWsp-29" style="edgeStyle=orthogonalEdgeStyle;rounded=0;orthogonalLoop=1;jettySize=auto;html=1;exitX=0.5;exitY=1;exitDx=0;exitDy=0;entryX=0.5;entryY=0;entryDx=0;entryDy=0;" edge="1" parent="WIyWlLk6GJQsqaUBKTNV-1" source="j2uJnXPg584m3QFYkWsp-22" target="j2uJnXPg584m3QFYkWsp-28">
          <mxGeometry relative="1" as="geometry" />
        </mxCell>
        <mxCell id="j2uJnXPg584m3QFYkWsp-22" value="5만줄씩 sub테이블&amp;nbsp; insert" style="rounded=1;whiteSpace=wrap;html=1;" vertex="1" parent="WIyWlLk6GJQsqaUBKTNV-1">
          <mxGeometry x="150" y="1210" width="170" height="60" as="geometry" />
        </mxCell>
        <mxCell id="j2uJnXPg584m3QFYkWsp-28" value="업데이트 완료 후 sub테이블, 본 테이블 merge" style="rounded=1;whiteSpace=wrap;html=1;" vertex="1" parent="WIyWlLk6GJQsqaUBKTNV-1">
          <mxGeometry x="150" y="1310" width="170" height="60" as="geometry" />
        </mxCell>
        <mxCell id="j2uJnXPg584m3QFYkWsp-30" value="" style="endArrow=classic;html=1;rounded=0;exitX=0.5;exitY=1;exitDx=0;exitDy=0;" edge="1" parent="WIyWlLk6GJQsqaUBKTNV-1" source="j2uJnXPg584m3QFYkWsp-22">
          <mxGeometry width="50" height="50" relative="1" as="geometry">
            <mxPoint x="390" y="1140" as="sourcePoint" />
            <mxPoint x="235" y="1190" as="targetPoint" />
            <Array as="points">
              <mxPoint x="235" y="1290" />
              <mxPoint x="100" y="1290" />
              <mxPoint x="100" y="1190" />
            </Array>
          </mxGeometry>
        </mxCell>
        <mxCell id="j2uJnXPg584m3QFYkWsp-39" style="edgeStyle=orthogonalEdgeStyle;rounded=0;orthogonalLoop=1;jettySize=auto;html=1;exitX=0.5;exitY=1;exitDx=0;exitDy=0;entryX=0.5;entryY=0;entryDx=0;entryDy=0;" edge="1" parent="WIyWlLk6GJQsqaUBKTNV-1" source="j2uJnXPg584m3QFYkWsp-37" target="j2uJnXPg584m3QFYkWsp-21">
          <mxGeometry relative="1" as="geometry" />
        </mxCell>
        <mxCell id="j2uJnXPg584m3QFYkWsp-37" value="sub 테이블 truncate" style="rounded=1;whiteSpace=wrap;html=1;" vertex="1" parent="WIyWlLk6GJQsqaUBKTNV-1">
          <mxGeometry x="150" y="1020" width="170" height="60" as="geometry" />
        </mxCell>
      </root>
    </mxGraphModel>
  </diagram>
</mxfile>
